<mxfile host="app.diagrams.net" modified="2021-07-04T04:34:27.593Z" agent="5.0 (Windows NT 6.2; Win64; x64) AppleWebKit/537.36 (KHTML, like Gecko) Chrome/91.0.4472.124 Safari/537.36" etag="khiCqdl-7DS_bj7bO1_u" version="14.8.4" type="github">
  <diagram name="Page-1" id="13e1069c-82ec-6db2-03f1-153e76fe0fe0">
    <mxGraphModel dx="1414" dy="754" grid="1" gridSize="10" guides="1" tooltips="1" connect="1" arrows="1" fold="1" page="1" pageScale="1" pageWidth="1100" pageHeight="850" background="none" math="0" shadow="0">
      <root>
        <mxCell id="0" />
        <mxCell id="1" parent="0" />
        <mxCell id="7baba1c4bc27f4b0-2" value="平台" style="shape=umlLifeline;perimeter=lifelinePerimeter;whiteSpace=wrap;html=1;container=1;collapsible=0;recursiveResize=0;outlineConnect=0;shadow=0;comic=0;labelBackgroundColor=none;strokeWidth=1.5;fontFamily=Verdana;fontSize=13;align=center;fontColor=#ffffff;fontStyle=1;fillColor=#4672C4;sketch=0;rounded=0;glass=0;strokeColor=#4672C4;" parent="1" vertex="1">
          <mxGeometry x="551" y="80" width="100" height="480" as="geometry" />
        </mxCell>
        <mxCell id="7baba1c4bc27f4b0-8" value="设备/网关" style="shape=umlLifeline;perimeter=lifelinePerimeter;whiteSpace=wrap;html=1;container=1;collapsible=0;recursiveResize=0;outlineConnect=0;shadow=0;comic=0;labelBackgroundColor=none;strokeWidth=1.5;fontFamily=Verdana;fontSize=13;align=center;fontColor=#ffffff;fontStyle=1;fillColor=#4672C4;sketch=0;rounded=0;glass=0;strokeColor=#4672C4;" parent="1" vertex="1">
          <mxGeometry x="100" y="80" width="100" height="480" as="geometry" />
        </mxCell>
        <mxCell id="Zx9dLRUgrOR5L-L7LJRZ-6" value="【MQTT】OTA升级进度&lt;br style=&quot;font-size: 10px;&quot;&gt;(主题2）" style="html=1;verticalAlign=bottom;endArrow=block;fontFamily=Verdana;fontSize=10;strokeWidth=1.5;fontColor=#4672C4;strokeColor=#4672C4;" parent="7baba1c4bc27f4b0-8" edge="1">
          <mxGeometry x="-0.0381" y="-21" width="80" relative="1" as="geometry">
            <mxPoint x="50" y="386" as="sourcePoint" />
            <mxPoint x="299.5" y="386" as="targetPoint" />
            <mxPoint as="offset" />
          </mxGeometry>
        </mxCell>
        <mxCell id="7baba1c4bc27f4b0-11" value="通过MQTT CONNECT发送自注册请求" style="html=1;verticalAlign=bottom;endArrow=block;labelBackgroundColor=none;fontFamily=Verdana;fontSize=10;edgeStyle=elbowEdgeStyle;elbow=vertical;fillColor=#0050ef;strokeWidth=1.5;fontColor=#4672C4;strokeColor=#4672C4;" parent="1" edge="1">
          <mxGeometry relative="1" as="geometry">
            <mxPoint x="150" y="160" as="sourcePoint" />
            <mxPoint x="600.25" y="160" as="targetPoint" />
          </mxGeometry>
        </mxCell>
        <mxCell id="Zx9dLRUgrOR5L-L7LJRZ-5" value="注册成功，通过topic（&lt;span style=&quot;font-size: 14px ; text-align: left&quot;&gt;v4/s/register&lt;/span&gt;）返回认证参数" style="html=1;verticalAlign=bottom;endArrow=block;fontFamily=Verdana;fontSize=10;strokeWidth=1.5;fontColor=#4672C4;strokeColor=#4672C4;" parent="1" edge="1">
          <mxGeometry x="0.0216" width="80" relative="1" as="geometry">
            <mxPoint x="600.25" y="256" as="sourcePoint" />
            <mxPoint x="149.5" y="256" as="targetPoint" />
            <Array as="points">
              <mxPoint x="270" y="256" />
            </Array>
            <mxPoint as="offset" />
          </mxGeometry>
        </mxCell>
        <mxCell id="Zx9dLRUgrOR5L-L7LJRZ-7" value="【MQTT】升级完成，上报最新版本" style="html=1;verticalAlign=bottom;endArrow=block;fontFamily=Verdana;fontSize=10;strokeWidth=1.5;fontColor=#4672C4;strokeColor=#4672C4;" parent="1" edge="1">
          <mxGeometry x="0.0261" width="80" relative="1" as="geometry">
            <mxPoint x="152" y="533" as="sourcePoint" />
            <mxPoint x="401.5" y="533" as="targetPoint" />
            <mxPoint as="offset" />
          </mxGeometry>
        </mxCell>
        <mxCell id="Zx9dLRUgrOR5L-L7LJRZ-8" value="【HTTPS】通过URL下载固件文件" style="html=1;verticalAlign=bottom;endArrow=block;fontFamily=Verdana;fontSize=10;strokeWidth=1.5;fontColor=#4672C4;strokeColor=#4672C4;" parent="1" edge="1">
          <mxGeometry width="80" relative="1" as="geometry">
            <mxPoint x="150" y="362" as="sourcePoint" />
            <mxPoint x="640" y="362" as="targetPoint" />
          </mxGeometry>
        </mxCell>
        <mxCell id="Zx9dLRUgrOR5L-L7LJRZ-9" value="固件文件" style="html=1;verticalAlign=bottom;endArrow=open;dashed=1;endSize=8;fontFamily=Verdana;fontSize=10;strokeWidth=1.5;fontColor=#4672C4;strokeColor=#4672C4;" parent="1" edge="1">
          <mxGeometry relative="1" as="geometry">
            <mxPoint x="640.5" y="406" as="sourcePoint" />
            <mxPoint x="150" y="406" as="targetPoint" />
          </mxGeometry>
        </mxCell>
        <mxCell id="6qcfvPLFWDOjw323UtLE-1" value="订阅topic（v4/s/register）" style="html=1;verticalAlign=bottom;endArrow=block;labelBackgroundColor=none;fontFamily=Verdana;fontSize=10;edgeStyle=elbowEdgeStyle;elbow=vertical;fillColor=#0050ef;strokeWidth=1.5;fontColor=#4672C4;strokeColor=#4672C4;" edge="1" parent="1">
          <mxGeometry relative="1" as="geometry">
            <mxPoint x="150" y="210" as="sourcePoint" />
            <mxPoint x="600.25" y="210" as="targetPoint" />
          </mxGeometry>
        </mxCell>
      </root>
    </mxGraphModel>
  </diagram>
</mxfile>
